<svg xmlns="http://www.w3.org/2000/svg" viewBox="0 0 1600 1000">
  <defs>
    <linearGradient id="bg" x1="0" x2="1" y1="0" y2="1"><stop stop-color="#251d4d"/><stop offset=".48" stop-color="#6f3fc5"/><stop offset="1" stop-color="#ff7aa8"/></linearGradient>
    <linearGradient id="card" x1="0" x2="1"><stop stop-color="#fff"/><stop offset="1" stop-color="#f4efff"/></linearGradient>
    <filter id="s"><feDropShadow dx="0" dy="30" stdDeviation="35" flood-opacity=".28"/></filter>
  </defs>
  <rect width="1600" height="1000" fill="url(#bg)"/>
  <circle cx="1320" cy="170" r="260" fill="#ffd166" opacity=".22"/>
  <circle cx="190" cy="850" r="300" fill="#61d8ff" opacity=".18"/>
  <g filter="url(#s)">
    <rect x="170" y="110" width="470" height="780" rx="58" fill="#151126"/>
    <rect x="205" y="155" width="400" height="610" rx="32" fill="url(#card)"/>
    <rect x="240" y="205" width="330" height="300" rx="24" fill="#f7c85a"/>
    <path d="M270 450 C350 310 455 560 545 300" fill="none" stroke="#2a2150" stroke-width="28" stroke-linecap="round"/>
    <rect x="240" y="545" width="240" height="22" rx="11" fill="#2a2150"/>
    <rect x="240" y="585" width="300" height="14" rx="7" fill="#a69bbf"/>
    <rect x="240" y="618" width="265" height="14" rx="7" fill="#c8bfd8"/>
    <rect x="240" y="685" width="110" height="42" rx="21" fill="#ff6f61"/>
    <circle cx="405" cy="825" r="14" fill="#fff" opacity=".65"/>
  </g>
  <g filter="url(#s)">
    <rect x="720" y="180" width="690" height="560" rx="42" fill="#fff"/>
    <rect x="760" y="225" width="610" height="72" rx="22" fill="#f3effa"/>
    <circle cx="806" cy="261" r="18" fill="#ff7b82"/><circle cx="852" cy="261" r="18" fill="#ffd166"/><circle cx="898" cy="261" r="18" fill="#61d8ff"/>
    <rect x="760" y="335" width="250" height="330" rx="28" fill="#241f46"/>
    <rect x="1040" y="335" width="330" height="150" rx="28" fill="#ffcf67"/>
    <rect x="1040" y="515" width="155" height="150" rx="28" fill="#ff86ad"/>
    <rect x="1215" y="515" width="155" height="150" rx="28" fill="#7bdcff"/>
    <rect x="800" y="385" width="170" height="22" rx="11" fill="#fff"/>
    <rect x="800" y="432" width="130" height="14" rx="7" fill="#8f86aa"/>
    <rect x="800" y="465" width="160" height="14" rx="7" fill="#8f86aa"/>
    <rect x="800" y="548" width="120" height="45" rx="22" fill="#ff7b82"/>
  </g>
</svg>
